<svg width="75" height="28" viewBox="0 0 75 28" fill="none" xmlns="http://www.w3.org/2000/svg">
<g id="Asset 5" clip-path="url(#clip0_868_720)">
<g id="Layer 2">
<g id="Layer 1">
<path id="Vector" d="M30.6126 5.61704e-05H29.5589C25.8254 -0.00785964 22.1376 0.820971 18.7666 2.42563C15.3956 4.03028 12.4269 6.36997 10.079 9.27272C8.99169 10.6186 7.61655 11.7037 6.05468 12.4482C4.49281 13.1926 2.78393 13.5776 1.05371 13.5746H0V27.0301H1.05371C4.78684 27.0371 8.47407 26.2073 11.8443 24.6019C15.2146 22.9964 18.1823 20.656 20.5291 17.7528C21.6177 16.4076 22.9939 15.3234 24.5565 14.5798C26.1191 13.8361 27.8284 13.452 29.5589 13.4555H30.6126V5.61704e-05Z" fill="#FF5500"/>
<path id="Vector_2" d="M61.2213 5.57526e-05H60.1722C56.4394 -0.00783061 52.7523 0.821039 49.382 2.42572C46.0117 4.0304 43.0439 6.37008 40.6968 9.27272C39.6086 10.6187 38.2327 11.7038 36.67 12.4483C35.1074 13.1927 33.3979 13.5776 31.667 13.5746H30.6133V27.0301H31.667C35.4001 27.0371 39.0874 26.2073 42.4576 24.6019C45.8279 22.9964 48.7955 20.656 51.1423 17.7528C52.2308 16.4074 53.6069 15.323 55.1695 14.5793C56.7322 13.8357 58.4416 13.4516 60.1722 13.4555H61.2213V5.57526e-05Z" fill="#FF5500"/>
<path id="Vector_3" d="M74.6761 13.5605H61.2207V27.016H74.6761V13.5605Z" fill="#FF5500"/>
</g>
</g>
</g>
<defs>
<clipPath id="clip0_868_720">
<rect width="74.6761" height="27.03" fill="white"/>
</clipPath>
</defs>
</svg>
