<svg width="207" height="57" viewBox="0 0 207 57" fill="none" xmlns="http://www.w3.org/2000/svg">
<g id="Asset 1 1" clip-path="url(#clip0_775_58103)">
<g id="Layer 2">
<g id="Layer 1">
<path id="Vector" d="M75.2664 22.6618V11.3018H77.2795L81.1435 18.8635L84.9727 11.3018H87.0012V22.6618H85.2779V14.2693L81.8003 21.039H80.4673L76.9897 14.2847V22.6618H75.2664Z" fill="black"/>
<path id="Vector_2" d="M91.9626 22.8556C91.3807 22.8775 90.802 22.761 90.274 22.5156C89.8639 22.3179 89.5202 22.005 89.2849 21.6153C89.0694 21.2432 88.9573 20.8203 88.9603 20.3904C88.9492 20.0319 89.0266 19.6762 89.1856 19.3547C89.3447 19.0333 89.5805 18.756 89.8722 18.5473C90.6411 18.0447 91.5521 17.8048 92.4688 17.8634H94.5785V17.7204C94.5984 17.462 94.5632 17.2023 94.4753 16.9585C94.3873 16.7148 94.2487 16.4924 94.0684 16.3062C93.7009 15.9849 93.223 15.8187 92.7354 15.8425C92.2961 15.8334 91.8642 15.9558 91.495 16.1941C91.321 16.3098 91.1737 16.4613 91.0631 16.6386C90.9524 16.8159 90.881 17.0148 90.8536 17.2219H89.1419C89.182 16.6737 89.3882 16.1508 89.7331 15.7227C90.0819 15.303 90.5274 14.9741 91.0314 14.7645C91.5803 14.5389 92.169 14.4259 92.7624 14.4322C93.7157 14.3714 94.6544 14.6894 95.3745 15.317C95.6882 15.6321 95.9325 16.0095 96.0916 16.4248C96.2506 16.84 96.3209 17.284 96.298 17.7281V22.6624H94.8065L94.6674 21.283C94.4339 21.736 94.0913 22.1238 93.6705 22.4113C93.1613 22.7336 92.5642 22.8889 91.9626 22.8556ZM92.3026 21.4607C92.7202 21.4735 93.1317 21.3575 93.4811 21.1284C93.8014 20.9023 94.0582 20.5976 94.2269 20.2436C94.4096 19.861 94.5221 19.4487 94.5592 19.0264H92.6272C92.1169 18.9811 91.606 19.1062 91.1743 19.3819C91.0392 19.4879 90.9303 19.6235 90.8559 19.7782C90.7816 19.933 90.7438 20.1028 90.7454 20.2745C90.743 20.4446 90.7822 20.6128 90.8596 20.7644C90.9371 20.9159 91.0504 21.0462 91.1898 21.1439C91.5172 21.3691 91.9096 21.4804 92.3065 21.4607H92.3026Z" fill="black"/>
<path id="Vector_3" d="M98.311 22.6622V10.9775H100.031V17.9327L103.122 14.6058H105.185L101.758 18.2573L105.68 22.6622H103.504L100.027 18.5393V22.6622H98.311Z" fill="black"/>
<path id="Vector_4" d="M110.158 22.8551C109.423 22.8677 108.698 22.6865 108.056 22.3296C107.45 21.9841 106.953 21.4771 106.619 20.8652C106.262 20.1909 106.084 19.4368 106.101 18.6743C106.083 17.9028 106.259 17.1391 106.611 16.4525C106.938 15.8311 107.434 15.3143 108.041 14.961C108.69 14.5923 109.427 14.4067 110.173 14.424C110.896 14.4077 111.61 14.5894 112.237 14.9494C112.807 15.2876 113.277 15.7701 113.601 16.3482C113.927 16.9394 114.095 17.605 114.088 18.2802C114.088 18.3884 114.088 18.5043 114.088 18.6279C114.088 18.7516 114.088 18.8907 114.064 19.0414H107.805C107.808 19.3743 107.878 19.7032 108.011 20.0086C108.144 20.3139 108.336 20.5894 108.578 20.8188C109.015 21.2156 109.587 21.4323 110.177 21.4255C110.61 21.442 111.037 21.3261 111.402 21.0932C111.732 20.8733 111.989 20.5598 112.14 20.1929H113.86C113.645 20.9478 113.194 21.6141 112.573 22.0939C111.88 22.6187 111.027 22.8876 110.158 22.8551ZM110.158 15.8266C109.606 15.8191 109.067 16.0004 108.632 16.3405C108.399 16.5301 108.208 16.7648 108.068 17.0304C107.929 17.296 107.844 17.5871 107.82 17.8861H112.364C112.362 17.6046 112.302 17.3265 112.188 17.0693C112.073 16.812 111.907 16.581 111.7 16.3907C111.274 16.0187 110.723 15.8225 110.158 15.842V15.8266Z" fill="black"/>
<path id="Vector_5" d="M115.869 22.6623V14.6098H117.414L117.561 16.1361C117.832 15.6179 118.24 15.1836 118.74 14.8803C119.292 14.5578 119.924 14.3972 120.564 14.4166V16.2288H120.092C119.657 16.2224 119.225 16.3025 118.821 16.4645C118.444 16.6238 118.13 16.9037 117.928 17.2605C117.682 17.7368 117.567 18.2705 117.596 18.8061V22.6701L115.869 22.6623Z" fill="black"/>
<path id="Vector_6" d="M125.251 22.8555C124.353 22.892 123.468 22.6298 122.735 22.1097C122.417 21.878 122.151 21.5816 121.955 21.24C121.76 20.8984 121.638 20.5193 121.599 20.1275H123.334C123.427 20.5053 123.645 20.8404 123.952 21.078C124.321 21.3536 124.775 21.4904 125.235 21.4644C125.641 21.4991 126.045 21.3836 126.371 21.1399C126.481 21.0485 126.569 20.9346 126.631 20.8059C126.692 20.6771 126.725 20.5367 126.727 20.3941C126.743 20.2201 126.704 20.0454 126.615 19.8948C126.526 19.7443 126.392 19.6256 126.232 19.5556C125.789 19.3802 125.33 19.2507 124.86 19.1692C124.401 19.069 123.948 18.94 123.504 18.7828C123.085 18.6378 122.704 18.4015 122.387 18.0912C122.235 17.9305 122.116 17.7405 122.039 17.5326C121.962 17.3246 121.928 17.1032 121.939 16.8818C121.934 16.5466 122.004 16.2144 122.144 15.91C122.285 15.6056 122.492 15.3368 122.751 15.1237C123.396 14.6175 124.204 14.3659 125.023 14.4165C125.803 14.381 126.573 14.6112 127.206 15.0696C127.486 15.292 127.718 15.5697 127.887 15.8854C128.056 16.2011 128.158 16.5481 128.187 16.9049H126.534C126.513 16.7443 126.46 16.5895 126.377 16.45C126.295 16.3105 126.185 16.1892 126.054 16.0935C125.741 15.8832 125.368 15.7802 124.992 15.7998C124.636 15.7784 124.282 15.8719 123.983 16.0665C123.872 16.1442 123.782 16.2478 123.72 16.3684C123.658 16.4889 123.626 16.6226 123.628 16.7581C123.635 16.9055 123.686 17.0475 123.774 17.1659C123.862 17.2843 123.983 17.3737 124.122 17.4227C124.54 17.6159 124.978 17.7624 125.428 17.8593C125.937 17.9699 126.439 18.1092 126.932 18.2767C127.353 18.4093 127.734 18.6458 128.04 18.9644C128.347 19.3367 128.499 19.8125 128.466 20.2936C128.476 20.6449 128.404 20.9937 128.255 21.3123C128.107 21.6309 127.887 21.9105 127.612 22.129C126.937 22.6453 126.099 22.903 125.251 22.8555Z" fill="black"/>
<path id="Vector_7" d="M130.347 26.2328V14.61H131.893L132.07 15.8619C132.357 15.4582 132.721 15.1154 133.141 14.8534C133.672 14.5431 134.281 14.3915 134.895 14.4168C135.61 14.398 136.315 14.5812 136.931 14.9456C137.546 15.3099 138.046 15.8405 138.373 16.4763C138.723 17.147 138.9 17.895 138.887 18.6517C138.901 19.406 138.724 20.1518 138.373 20.8194C138.05 21.4352 137.565 21.951 136.97 22.3109C136.343 22.6827 135.624 22.8715 134.895 22.8557C134.317 22.8644 133.745 22.7318 133.23 22.4693C132.752 22.2334 132.35 21.8678 132.07 21.4144V26.2328H130.347ZM134.598 21.3642C134.938 21.3718 135.276 21.3068 135.589 21.1735C135.902 21.0402 136.183 20.8418 136.414 20.5914C136.656 20.3261 136.845 20.0154 136.967 19.6773C137.09 19.3391 137.145 18.9801 137.128 18.6208C137.138 18.1311 137.026 17.6467 136.804 17.2104C136.598 16.8048 136.282 16.4658 135.891 16.2326C135.501 15.9994 135.052 15.8816 134.598 15.8928C134.258 15.8828 133.921 15.9467 133.608 16.0802C133.296 16.2136 133.017 16.4134 132.789 16.6656C132.307 17.2028 132.053 17.9071 132.082 18.6285C132.05 19.3527 132.304 20.0605 132.789 20.5991C133.016 20.8469 133.294 21.0434 133.603 21.1753C133.912 21.3073 134.246 21.3717 134.582 21.3642H134.598Z" fill="black"/>
<path id="Vector_8" d="M143.458 22.8557C142.877 22.8776 142.3 22.761 141.773 22.5157C141.362 22.318 141.017 22.0053 140.78 21.6154C140.564 21.2433 140.452 20.8204 140.455 20.3905C140.445 20.0321 140.522 19.6765 140.681 19.3551C140.84 19.0337 141.076 18.7563 141.367 18.5474C141.97 18.0914 142.836 17.8635 143.964 17.8635H146.058V17.7205C146.077 17.4618 146.042 17.202 145.953 16.9582C145.864 16.7144 145.725 16.4922 145.544 16.3063C145.184 15.9905 144.717 15.8246 144.238 15.8426C143.799 15.8335 143.367 15.9559 142.998 16.1942C142.823 16.3093 142.676 16.4607 142.565 16.6381C142.454 16.8155 142.383 17.0146 142.356 17.222H140.649C140.687 16.6735 140.894 16.1501 141.24 15.7228C141.587 15.3013 142.033 14.9722 142.538 14.7645C143.086 14.5393 143.673 14.4263 144.265 14.4322C145.219 14.3711 146.157 14.6891 146.877 15.3171C147.192 15.6315 147.438 16.0086 147.597 16.424C147.757 16.8394 147.828 17.2838 147.805 17.7282V22.6625H146.309L146.166 21.2831C145.93 21.7365 145.585 22.1241 145.162 22.4113C144.654 22.7329 144.058 22.8882 143.458 22.8557ZM143.802 21.4608C144.213 21.4704 144.617 21.3544 144.961 21.1285C145.282 20.9035 145.539 20.5985 145.706 20.2437C145.889 19.8611 146.002 19.4488 146.039 19.0265H144.126C143.616 18.9812 143.105 19.1062 142.673 19.382C142.538 19.488 142.429 19.6236 142.355 19.7783C142.28 19.9331 142.243 20.1029 142.244 20.2746C142.237 20.4422 142.271 20.609 142.343 20.7604C142.415 20.9119 142.523 21.0436 142.658 21.144C142.992 21.3761 143.395 21.4878 143.802 21.4608Z" fill="black"/>
<path id="Vector_9" d="M153.616 22.8557C152.875 22.8686 152.144 22.6832 151.499 22.3186C150.883 21.9697 150.377 21.4558 150.038 20.8348C149.676 20.1595 149.495 19.4021 149.513 18.6362C149.495 17.8704 149.676 17.113 150.038 16.4376C150.377 15.8167 150.883 15.3028 151.499 14.9539C152.144 14.5893 152.875 14.4039 153.616 14.4168C154.515 14.3835 155.399 14.6559 156.124 15.1896C156.802 15.7098 157.267 16.4602 157.43 17.2993H155.629C155.535 16.873 155.279 16.5001 154.914 16.2599C154.548 16.0252 154.125 15.8957 153.69 15.8855C153.255 15.8753 152.826 15.9847 152.449 16.2019C152.082 16.4251 151.783 16.7462 151.588 17.1293C151.357 17.5945 151.246 18.1096 151.263 18.6285C151.247 19.1486 151.358 19.6647 151.588 20.1316C151.786 20.5138 152.084 20.8355 152.449 21.0628C152.798 21.2764 153.199 21.3887 153.608 21.3874C154.071 21.3956 154.524 21.2606 154.907 21.001C155.274 20.7568 155.531 20.3779 155.622 19.9461H157.422C157.259 20.7793 156.798 21.5242 156.124 22.0404C155.405 22.5898 154.52 22.8774 153.616 22.8557Z" fill="black"/>
<path id="Vector_10" d="M163.06 22.8551C162.325 22.8683 161.6 22.687 160.958 22.3296C160.354 21.9835 159.857 21.4765 159.524 20.8652C159.168 20.1909 158.99 19.4368 159.006 18.6743C158.989 17.9028 159.164 17.1391 159.516 16.4525C159.842 15.8303 160.338 15.3131 160.946 14.961C161.595 14.5923 162.332 14.4067 163.079 14.424C163.801 14.4078 164.513 14.5895 165.138 14.9494C165.71 15.289 166.181 15.7745 166.502 16.3559C166.829 16.9471 166.997 17.6127 166.989 18.2879C166.989 18.3961 166.989 18.512 166.989 18.6357C166.989 18.7593 166.989 18.8984 166.966 19.0491H160.695C160.698 19.3821 160.768 19.711 160.901 20.0163C161.034 20.3216 161.226 20.5972 161.468 20.8265C161.904 21.2187 162.473 21.4324 163.06 21.4255C163.492 21.442 163.92 21.3261 164.285 21.0932C164.614 20.8721 164.87 20.559 165.023 20.1929H166.742C166.527 20.9488 166.075 21.6154 165.451 22.0939C164.765 22.615 163.921 22.8838 163.06 22.8551ZM163.06 15.842C162.507 15.834 161.968 16.0153 161.533 16.3559C161.301 16.5456 161.109 16.7803 160.97 17.0459C160.83 17.3115 160.746 17.6025 160.722 17.9015H165.266C165.268 17.6157 165.21 17.3327 165.096 17.0705C164.983 16.8084 164.815 16.5729 164.605 16.3791C164.176 16.0114 163.624 15.8195 163.06 15.842Z" fill="black"/>
<path id="Vector_11" d="M75.3165 39.6638V28.3037H76.6805V39.6638H75.3165Z" fill="black"/>
<path id="Vector_12" d="M78.999 39.6633V31.6108H80.2316L80.3128 33.0559C80.5647 32.5571 80.9533 32.1403 81.4333 31.8542C81.9309 31.5622 82.4986 31.4113 83.0755 31.4176C83.4955 31.3974 83.9151 31.4642 84.3081 31.6138C84.7011 31.7634 85.0589 31.9926 85.3591 32.287C85.9258 32.8666 86.2092 33.7566 86.2092 34.957V39.6633H84.8452V35.0999C84.8452 33.423 84.1536 32.5845 82.7703 32.5845C82.4427 32.5787 82.1179 32.6449 81.8188 32.7785C81.5197 32.912 81.2536 33.1096 81.0392 33.3573C80.5561 33.9589 80.3174 34.7205 80.3707 35.4902V39.6633H78.999Z" fill="black"/>
<path id="Vector_13" d="M88.2803 39.6632V31.6107H89.5167L89.5979 33.0558C89.8484 32.5573 90.2358 32.1405 90.7146 31.8541C91.2167 31.5596 91.7901 31.4085 92.3722 31.4175C92.7916 31.3976 93.2106 31.4646 93.6029 31.6142C93.9951 31.7638 94.3523 31.9928 94.652 32.2869C95.2213 32.8665 95.5046 33.7565 95.502 34.9569V39.6632H94.1419V35.0998C94.1419 33.4229 93.4464 32.5844 92.0631 32.5844C91.7362 32.5789 91.4121 32.6453 91.1136 32.7788C90.8152 32.9124 90.5497 33.1098 90.3359 33.3572C89.8445 33.9554 89.5974 34.7173 89.6443 35.4901V39.6632H88.2803Z" fill="black"/>
<path id="Vector_14" d="M101.236 39.8569C100.521 39.867 99.816 39.6884 99.192 39.3392C98.5868 38.9909 98.0905 38.4812 97.7585 37.867C97.4105 37.1746 97.2292 36.4105 97.2292 35.6356C97.2292 34.8606 97.4105 34.0965 97.7585 33.4041C98.1005 32.7919 98.6028 32.2843 99.2113 31.9358C99.8411 31.5959 100.546 31.418 101.261 31.418C101.977 31.418 102.681 31.5959 103.311 31.9358C103.915 32.2843 104.411 32.7923 104.745 33.4041C105.11 34.0909 105.292 34.86 105.274 35.6375C105.294 36.4149 105.108 37.1839 104.737 37.867C104.398 38.4825 103.895 38.9921 103.284 39.3392C102.658 39.6873 101.952 39.8658 101.236 39.8569ZM101.236 38.6977C101.692 38.6993 102.139 38.5807 102.534 38.3539C102.949 38.1128 103.287 37.7591 103.508 37.3338C103.776 36.8122 103.909 36.2316 103.894 35.6452C103.913 35.0607 103.787 34.4806 103.527 33.9567C103.311 33.5303 102.975 33.1759 102.561 32.9366C102.172 32.7103 101.729 32.5916 101.279 32.5927C100.823 32.5911 100.375 32.7097 99.9802 32.9366C99.5666 33.1788 99.2293 33.5322 99.0065 33.9567C98.7622 34.4861 98.6357 35.0622 98.6357 35.6452C98.6357 36.2283 98.7622 36.8044 99.0065 37.3338C99.2275 37.7569 99.562 38.1102 99.9725 38.3539C100.356 38.5758 100.793 38.6918 101.236 38.69V38.6977Z" fill="black"/>
<path id="Vector_15" d="M109.088 39.6638L106.035 31.6113H107.465L109.884 38.3462L112.318 31.6113H113.713L110.66 39.6638H109.088Z" fill="black"/>
<path id="Vector_16" d="M117.492 39.8569C116.916 39.8773 116.344 39.7608 115.823 39.5169C115.41 39.3184 115.066 39.0024 114.833 38.6088C114.616 38.2333 114.504 37.8062 114.509 37.3724C114.492 37.0025 114.57 36.6346 114.734 36.3028C114.898 35.9711 115.144 35.6863 115.448 35.4751C116.214 34.9936 117.11 34.7614 118.013 34.8105H120.189V34.7139C120.209 34.4238 120.171 34.1325 120.076 33.8576C119.981 33.5827 119.831 33.3298 119.636 33.1143C119.44 32.9288 119.207 32.785 118.954 32.6914C118.7 32.5977 118.43 32.5563 118.16 32.5694C117.674 32.5539 117.195 32.6888 116.789 32.9558C116.596 33.0903 116.433 33.2623 116.309 33.4615C116.184 33.6607 116.102 33.883 116.066 34.115H114.671C114.709 33.5732 114.915 33.0569 115.262 32.639C115.607 32.2355 116.045 31.9213 116.537 31.7232C117.052 31.5097 117.603 31.402 118.16 31.4064C119.283 31.4064 120.13 31.7065 120.699 32.3067C121.287 32.9619 121.593 33.8229 121.549 34.7023V39.6521H120.332L120.251 38.207C120.018 38.6689 119.676 39.0668 119.254 39.3662C118.734 39.7146 118.117 39.8867 117.492 39.8569ZM117.704 38.6977C118.18 38.7159 118.649 38.5804 119.041 38.3113C119.415 38.0426 119.71 37.6782 119.895 37.2564C120.089 36.8277 120.189 36.3628 120.189 35.8925H118.125C117.326 35.8925 116.761 36.0277 116.429 36.3059C116.274 36.4239 116.147 36.5756 116.059 36.7496C115.97 36.9236 115.923 37.1154 115.919 37.3105C115.912 37.5037 115.951 37.6957 116.031 37.8715C116.112 38.0472 116.232 38.2018 116.383 38.3229C116.764 38.6031 117.232 38.7387 117.704 38.7054V38.6977Z" fill="black"/>
<path id="Vector_17" d="M126.549 39.6632C125.925 39.6981 125.309 39.5075 124.814 39.1261C124.389 38.7706 124.18 38.1253 124.18 37.1941V32.766H122.785V31.6068H124.18L124.358 29.6748H125.544V31.6068H127.897V32.766H125.529V37.1941C125.506 37.3778 125.521 37.5643 125.573 37.7419C125.626 37.9195 125.715 38.0842 125.834 38.2258C126.156 38.4362 126.541 38.5303 126.924 38.4924H127.766V39.6516L126.549 39.6632Z" fill="black"/>
<path id="Vector_18" d="M130.475 29.8261C130.35 29.8298 130.227 29.8081 130.111 29.7622C129.995 29.7164 129.89 29.6473 129.802 29.5594C129.715 29.4714 129.646 29.3664 129.6 29.2508C129.554 29.1352 129.532 29.0114 129.536 28.8871C129.533 28.7663 129.555 28.6462 129.601 28.5344C129.647 28.4227 129.715 28.3217 129.802 28.238C129.891 28.1518 129.997 28.0844 130.112 28.0399C130.228 27.9955 130.351 27.9748 130.475 27.9791C130.598 27.9761 130.72 27.9975 130.835 28.0419C130.949 28.0863 131.054 28.153 131.143 28.238C131.232 28.3209 131.302 28.4215 131.349 28.5333C131.397 28.6452 131.42 28.7657 131.418 28.8871C131.421 29.0121 131.398 29.1363 131.351 29.252C131.304 29.3677 131.233 29.4724 131.143 29.5594C131.055 29.6462 130.951 29.7144 130.836 29.7602C130.721 29.806 130.598 29.8284 130.475 29.8261ZM129.795 39.6637V31.6112H131.159V39.6637H129.795Z" fill="black"/>
<path id="Vector_19" d="M137.194 39.8569C136.479 39.867 135.774 39.6884 135.15 39.3392C134.544 38.9915 134.046 38.4817 133.713 37.867C133.365 37.1746 133.184 36.4105 133.184 35.6356C133.184 34.8606 133.365 34.0965 133.713 33.4041C134.055 32.7919 134.557 32.2843 135.166 31.9358C135.795 31.5959 136.5 31.418 137.215 31.418C137.931 31.418 138.636 31.5959 139.265 31.9358C139.87 32.2833 140.366 32.7916 140.699 33.4041C141.064 34.0909 141.246 34.86 141.228 35.6375C141.25 36.4142 141.068 37.1831 140.699 37.867C140.361 38.4834 139.858 38.9933 139.246 39.3392C138.619 39.688 137.912 39.8665 137.194 39.8569ZM137.194 38.6977C137.65 38.7002 138.098 38.5816 138.493 38.3539C138.908 38.1138 139.246 37.7598 139.466 37.3338C139.735 36.8122 139.868 36.2316 139.853 35.6452C139.866 35.0591 139.733 34.4789 139.466 33.9567C139.25 33.5303 138.914 33.1759 138.5 32.9366C138.112 32.7108 137.671 32.5921 137.221 32.5927C136.766 32.5902 136.318 32.7089 135.923 32.9366C135.508 33.1766 135.17 33.5306 134.949 33.9567C134.702 34.4854 134.575 35.0617 134.575 35.6452C134.575 36.2287 134.702 36.8051 134.949 37.3338C135.159 37.7459 135.48 38.0915 135.875 38.3323C136.27 38.5732 136.724 38.6996 137.187 38.6977H137.194Z" fill="black"/>
<path id="Vector_20" d="M143.133 39.6632V31.6107H144.366L144.447 33.0558C144.7 32.5579 145.088 32.1414 145.567 31.8541C146.067 31.5609 146.638 31.41 147.217 31.4175C147.637 31.3976 148.056 31.4646 148.448 31.6142C148.84 31.7638 149.197 31.9928 149.497 32.2869C150.064 32.8665 150.347 33.7565 150.347 34.9569V39.6632H148.995V35.0998C148.995 33.4229 148.299 32.5844 146.916 32.5844C146.589 32.5789 146.265 32.6453 145.966 32.7788C145.668 32.9124 145.402 33.1098 145.189 33.3572C144.703 33.9577 144.461 34.7194 144.512 35.4901V39.6632H143.133Z" fill="black"/>
<path id="Vector_21" d="M161.781 39.8569C160.77 39.8831 159.772 39.6276 158.898 39.1189C158.09 38.6236 157.44 37.9078 157.024 37.0555C156.586 36.0927 156.359 35.0472 156.359 33.9895C156.359 32.9317 156.586 31.8862 157.024 30.9234C157.443 30.0712 158.092 29.3536 158.898 28.8523C159.77 28.339 160.769 28.0806 161.781 28.1066C162.913 28.0564 164.029 28.3854 164.953 29.0416C165.791 29.6784 166.357 30.6089 166.537 31.646H165.03C164.877 30.9771 164.503 30.3794 163.968 29.9497C163.34 29.4932 162.575 29.2667 161.8 29.3083C161.053 29.2906 160.316 29.4848 159.675 29.8685C159.058 30.2533 158.57 30.8128 158.272 31.4759C157.942 32.272 157.771 33.1255 157.771 33.9875C157.771 34.8495 157.942 35.703 158.272 36.4991C158.569 37.1628 159.057 37.7226 159.675 38.1065C160.316 38.4902 161.053 38.6845 161.8 38.6668C162.572 38.7076 163.336 38.487 163.968 38.0408C164.502 37.6254 164.877 37.0387 165.03 36.3793H166.537C166.357 37.401 165.798 38.3171 164.972 38.945C164.039 39.5939 162.916 39.9146 161.781 39.8569Z" fill="black"/>
<path id="Vector_22" d="M172.02 39.8571C171.304 39.8693 170.598 39.6877 169.976 39.3316C169.382 38.9824 168.897 38.4755 168.574 37.8672C168.216 37.1822 168.039 36.4176 168.06 35.6454C168.042 34.8768 168.216 34.116 168.566 33.4313C168.883 32.8147 169.37 32.3014 169.968 31.9514C170.603 31.5932 171.322 31.4118 172.051 31.4259C172.761 31.4087 173.461 31.5907 174.072 31.9514C174.625 32.2894 175.078 32.7699 175.382 33.3425C175.682 33.9115 175.838 34.546 175.834 35.1894C175.834 35.3092 175.834 35.429 175.834 35.5488C175.834 35.6686 175.834 35.8038 175.834 35.9352H169.408C169.415 36.4788 169.563 37.0113 169.837 37.4808C170.064 37.8562 170.385 38.1663 170.767 38.381C171.15 38.5957 171.582 38.7075 172.02 38.7056C172.52 38.7237 173.013 38.5889 173.434 38.3193C173.813 38.0594 174.103 37.69 174.265 37.2605H175.61C175.398 38.0373 174.926 38.7182 174.274 39.1904C173.622 39.6627 172.828 39.8979 172.024 39.8571H172.02ZM172.02 32.5697C171.393 32.5617 170.782 32.7721 170.293 33.1647C170.036 33.3762 169.826 33.6391 169.676 33.9365C169.526 34.234 169.44 34.5594 169.424 34.8919H174.489C174.489 34.5715 174.422 34.2546 174.293 33.9614C174.164 33.6681 173.976 33.4047 173.74 33.1879C173.266 32.7709 172.651 32.5498 172.02 32.5697Z" fill="black"/>
<path id="Vector_23" d="M177.635 39.6632V31.6107H178.867L178.948 33.0558C179.201 32.5579 179.59 32.1414 180.069 31.8541C180.571 31.5596 181.144 31.4085 181.726 31.4175C182.146 31.3976 182.565 31.4646 182.957 31.6142C183.349 31.7638 183.707 31.9928 184.006 32.2869C184.575 32.8665 184.859 33.7565 184.856 34.9569V39.6632H183.492V35.0998C183.492 33.4229 182.801 32.5844 181.417 32.5844C181.09 32.5787 180.766 32.6449 180.468 32.7785C180.169 32.912 179.904 33.1096 179.69 33.3572C179.195 33.9594 178.948 34.7276 178.999 35.5056V39.6787L177.635 39.6632Z" fill="black"/>
<path id="Vector_24" d="M190.107 39.6632C189.482 39.6977 188.865 39.5071 188.369 39.1261C187.946 38.7706 187.736 38.1266 187.739 37.1941V32.766H186.34V31.6068H187.739L187.917 29.6748H189.099V31.6068H191.471V32.766H189.099V37.1941C189.076 37.3781 189.092 37.5648 189.145 37.7423C189.199 37.9199 189.288 38.0845 189.408 38.2258C189.73 38.4362 190.115 38.5303 190.498 38.4924H191.34V39.6516L190.107 39.6632Z" fill="black"/>
<path id="Vector_25" d="M196.591 39.8571C195.875 39.8693 195.169 39.6877 194.547 39.3316C193.953 38.9814 193.467 38.4748 193.141 37.8672C192.787 37.1812 192.611 36.4171 192.631 35.6454C192.614 34.8774 192.787 34.1171 193.133 33.4313C193.453 32.8153 193.94 32.3023 194.539 31.9514C195.174 31.5932 195.893 31.4118 196.622 31.4259C197.332 31.4087 198.032 31.5907 198.643 31.9514C199.196 32.2885 199.647 32.7692 199.949 33.3425C200.253 33.9105 200.409 34.5454 200.405 35.1894C200.405 35.3092 200.405 35.429 200.405 35.5488C200.405 35.6686 200.405 35.8038 200.405 35.9352H193.971C193.978 36.4788 194.126 37.0113 194.4 37.4808C194.632 37.866 194.963 38.1821 195.359 38.3965C195.735 38.6002 196.156 38.7065 196.583 38.7056C197.082 38.7237 197.574 38.5889 197.994 38.3193C198.372 38.0621 198.661 37.6934 198.821 37.2644H200.169C199.957 38.0411 199.486 38.722 198.834 39.1943C198.182 39.6665 197.388 39.9018 196.583 39.861L196.591 39.8571ZM196.591 32.5697C195.964 32.5617 195.353 32.7721 194.864 33.1647C194.606 33.3751 194.395 33.6377 194.245 33.9354C194.095 34.233 194.01 34.559 193.995 34.8919H199.056C199.058 34.5716 198.992 34.2545 198.864 33.961C198.735 33.6675 198.547 33.4042 198.311 33.1879C197.836 32.7716 197.222 32.5506 196.591 32.5697Z" fill="black"/>
<path id="Vector_26" d="M202.205 39.6637V31.6112H203.438L203.554 33.1568C203.798 32.6315 204.193 32.1913 204.69 31.8933C205.261 31.5632 205.913 31.3999 206.572 31.4219V32.8438H206.185C205.735 32.8379 205.288 32.9233 204.872 33.095C204.468 33.2655 204.131 33.5642 203.913 33.9451C203.652 34.4569 203.529 35.0286 203.558 35.6027V39.6599L202.205 39.6637Z" fill="black"/>
<path id="Vector_27" d="M75.3165 56.6653V45.3052H79.0491C79.8036 45.2767 80.5541 45.4262 81.24 45.7418C81.7743 45.999 82.2177 46.4128 82.5112 46.9281C82.7944 47.4438 82.9382 48.0245 82.9285 48.6128C82.9357 49.1961 82.7947 49.7717 82.519 50.2859C82.2289 50.803 81.7882 51.2195 81.2554 51.4798C80.5658 51.8012 79.8094 51.9535 79.0491 51.9242H76.6805V56.6653H75.3165ZM76.6805 50.7727H78.9989C79.9108 50.7727 80.5548 50.5808 80.9309 50.197C81.3027 49.7506 81.5063 49.1879 81.5063 48.607C81.5063 48.026 81.3027 47.4634 80.9309 47.0169C80.5445 46.6305 79.9031 46.4412 78.9989 46.4412H76.6805V50.7727Z" fill="black"/>
<path id="Vector_28" d="M84.6211 56.6646V48.6121H85.8576L85.9696 50.1577C86.2133 49.6324 86.6091 49.1922 87.1056 48.8942C87.6766 48.5645 88.3284 48.4012 88.9874 48.4228V49.8447H88.601C88.1493 49.8385 87.7011 49.9239 87.2834 50.0959C86.8804 50.2666 86.545 50.5654 86.329 50.946C86.064 51.4568 85.94 52.0289 85.9696 52.6036V56.6608L84.6211 56.6646Z" fill="black"/>
<path id="Vector_29" d="M91.3482 46.8272C91.2239 46.831 91.1001 46.8093 90.9845 46.7634C90.8689 46.7175 90.7638 46.6485 90.6759 46.5606C90.588 46.4726 90.5189 46.3676 90.4731 46.252C90.4272 46.1364 90.4055 46.0126 90.4092 45.8883C90.4061 45.7675 90.4282 45.6474 90.4741 45.5356C90.52 45.4239 90.5887 45.3229 90.6758 45.2392C90.8587 45.0727 91.0971 44.9805 91.3443 44.9805C91.5916 44.9805 91.8299 45.0727 92.0128 45.2392C92.1028 45.3213 92.1741 45.4217 92.2221 45.5336C92.2701 45.6456 92.2936 45.7665 92.291 45.8883C92.2944 46.0136 92.2714 46.1383 92.2235 46.2541C92.1756 46.3699 92.1038 46.4744 92.0128 46.5606C91.9255 46.6473 91.8216 46.7155 91.7075 46.7613C91.5933 46.8071 91.4712 46.8295 91.3482 46.8272ZM90.6681 56.6649V48.6124H92.0321V56.6649H90.6681Z" fill="black"/>
<path id="Vector_30" d="M93.8481 56.6648V55.5443L98.3265 49.7483H93.9293V48.6123H99.8528V49.7329L95.3744 55.5288H99.9339V56.6648H93.8481Z" fill="black"/>
<path id="Vector_31" d="M101.735 56.6647V48.6122H102.967L103.083 50.1578C103.327 49.6324 103.723 49.1923 104.219 48.8943C104.79 48.5642 105.442 48.4009 106.101 48.4229V49.8448H105.715C105.264 49.8388 104.817 49.9243 104.401 50.096C103.997 50.2674 103.661 50.5659 103.442 50.946C103.181 51.4579 103.058 52.0295 103.087 52.6037V56.6608L101.735 56.6647Z" fill="black"/>
<path id="Vector_32" d="M110.938 56.8581C110.22 56.8709 109.512 56.6879 108.891 56.3287C108.295 55.9799 107.809 55.4713 107.488 54.8604C107.134 54.1745 106.958 53.4103 106.978 52.6386C106.959 51.8704 107.132 51.1096 107.48 50.4246C107.799 49.8099 108.285 49.2981 108.883 48.9485C109.518 48.5878 110.239 48.4049 110.969 48.4192C111.679 48.4012 112.38 48.5847 112.99 48.9485C113.544 49.283 113.996 49.7628 114.296 50.3357C114.598 50.9045 114.754 51.5389 114.752 52.1827C114.752 52.3038 114.752 52.4235 114.752 52.542C114.752 52.6618 114.752 52.7971 114.752 52.9477H108.323C108.333 53.4914 108.482 54.0235 108.755 54.4933C108.986 54.8783 109.316 55.1944 109.71 55.4091C110.087 55.6123 110.51 55.7185 110.938 55.7182C111.437 55.7363 111.929 55.6014 112.349 55.3318C112.726 55.0735 113.015 54.7052 113.176 54.277H114.524C114.312 55.0537 113.841 55.7346 113.189 56.2069C112.537 56.6791 111.743 56.9143 110.938 56.8735V56.8581ZM110.938 49.5706C110.311 49.5629 109.699 49.7717 109.207 50.1618C108.951 50.3741 108.741 50.6378 108.592 50.9359C108.443 51.234 108.358 51.56 108.342 51.8929H113.404C113.405 51.5725 113.34 51.2554 113.211 50.962C113.083 50.6685 112.894 50.4051 112.658 50.1889C112.183 49.7732 111.569 49.5524 110.938 49.5706Z" fill="black"/>
<path id="Vector_33" d="M116.553 56.6653V48.6128H117.785L117.867 50.0579C118.119 49.5591 118.507 49.1423 118.987 48.8562C119.488 48.5622 120.06 48.4112 120.641 48.4196C121.06 48.3992 121.479 48.466 121.872 48.6156C122.264 48.7652 122.621 48.9945 122.921 49.289C123.487 49.8686 123.772 50.7586 123.775 51.959V56.6653H122.411V52.1019C122.411 50.425 121.718 49.5865 120.332 49.5865C120.005 49.581 119.681 49.6474 119.382 49.7809C119.084 49.9145 118.818 50.1119 118.605 50.3593C118.111 50.9621 117.865 51.7302 117.917 52.5077V56.6808L116.553 56.6653Z" fill="black"/>
<path id="Vector_34" d="M0.888713 22.7975H0V11.449H0.888713C2.348 11.4515 3.78929 11.1268 5.10659 10.4989C6.42389 9.87105 7.5837 8.95588 8.50073 7.82072C10.481 5.37251 12.9848 3.39919 15.828 2.0458C18.6712 0.692417 21.7815 -0.00662891 24.9303 4.73748e-05H25.819V11.3485H24.9303C23.4708 11.3456 22.0291 11.6696 20.7112 12.2968C19.3933 12.924 18.2326 13.8384 17.3145 14.9729C15.3351 17.4216 12.8322 19.3955 9.98966 20.7495C7.14713 22.1036 4.03727 22.8034 0.888713 22.7975Z" fill="#FF5500"/>
<path id="Vector_35" d="M26.7078 22.7975H25.8191V11.449H26.7078C28.1677 11.4515 29.6095 11.1269 30.9274 10.499C32.2454 9.87114 33.4059 8.95597 34.3237 7.82072C36.3032 5.3726 38.8063 3.39929 41.6488 2.04588C44.4914 0.692474 47.6011 -0.00660443 50.7494 4.70224e-05H51.6343V11.3485H50.7494C49.2898 11.3453 47.8481 11.6692 46.5301 12.2964C45.2122 12.9236 44.0516 13.8382 43.1335 14.9729C41.1542 17.4216 38.6513 19.3955 35.8088 20.7495C32.9662 22.1036 29.8564 22.8034 26.7078 22.7975Z" fill="#FF5500"/>
<path id="Vector_36" d="M62.9828 11.4375H51.6343V22.786H62.9828V11.4375Z" fill="#FF5500"/>
</g>
</g>
</g>
<defs>
<clipPath id="clip0_775_58103">
<rect width="206.572" height="56.8583" fill="white"/>
</clipPath>
</defs>
</svg>
